<?xml version="1.0" encoding="UTF-8" standalone="no"?>
<!-- Created with Inkscape (http://www.inkscape.org/) -->

<svg
   xmlns:dc="http://purl.org/dc/elements/1.1/"
   xmlns:cc="http://creativecommons.org/ns#"
   xmlns:rdf="http://www.w3.org/1999/02/22-rdf-syntax-ns#"
   xmlns:svg="http://www.w3.org/2000/svg"
   xmlns="http://www.w3.org/2000/svg"
   xmlns:sodipodi="http://sodipodi.sourceforge.net/DTD/sodipodi-0.dtd"
   xmlns:inkscape="http://www.inkscape.org/namespaces/inkscape"
   width="21.544218mm"
   height="15.263479mm"
   viewBox="0 0 76.337781 54.083194"
   id="svg4954"
   version="1.1"
   inkscape:version="0.91 r13725"
   sodipodi:docname="logo-thin.svg">
  <defs
     id="defs4956" />
  <sodipodi:namedview
     id="base"
     pagecolor="#ffffff"
     bordercolor="#666666"
     borderopacity="1.0"
     inkscape:pageopacity="0.0"
     inkscape:pageshadow="2"
     inkscape:zoom="2.8"
     inkscape:cx="76.623873"
     inkscape:cy="13.590155"
     inkscape:document-units="px"
     inkscape:current-layer="layer1"
     showgrid="false"
     fit-margin-top="0"
     fit-margin-left="0"
     fit-margin-right="0"
     fit-margin-bottom="0"
     inkscape:window-width="1313"
     inkscape:window-height="744"
     inkscape:window-x="47"
     inkscape:window-y="24"
     inkscape:window-maximized="1" />
  <metadata
     id="metadata4959">
    <rdf:RDF>
      <cc:Work
         rdf:about="">
        <dc:format>image/svg+xml</dc:format>
        <dc:type
           rdf:resource="http://purl.org/dc/dcmitype/StillImage" />
        <dc:title></dc:title>
      </cc:Work>
    </rdf:RDF>
  </metadata>
  <g
     inkscape:label="Layer 1"
     inkscape:groupmode="layer"
     id="layer1"
     transform="translate(-264.68825,-388.17775)">
    <g
       style="display:inline"
       transform="matrix(0.6417398,0,0,0.6417398,59.041379,55.173464)"
       id="g4552">
      <path
         inkscape:connector-curvature="0"
         style="display:inline;fill:#ff6600;fill-rule:evenodd;stroke:none;stroke-width:1px;stroke-linecap:butt;stroke-linejoin:miter;stroke-opacity:1"
         d="m 387.26428,518.90857 a 42.137081,42.137081 0 0 0 -13.21364,2.1612 19.70146,40.447153 0 0 1 16.87306,39.97675 19.70146,40.447153 0 0 1 -16.81854,39.97456 42.137081,42.137081 0 0 0 13.15912,2.16338 42.137081,42.137081 0 0 0 41.93294,-38.32586 6.3028221,6.3028221 0 0 1 -0.50595,0.024 6.3028221,6.3028221 0 0 1 -6.30259,-6.30259 6.3028221,6.3028221 0 0 1 6.07578,-6.29169 42.137081,42.137081 0 0 0 -41.20018,-33.37974 z m 41.20018,33.37975 a 42.137081,42.137081 0 0 1 0.93776,8.7582 42.137081,42.137081 0 0 1 -0.205,3.81208 6.3028221,6.3028221 0 0 0 5.79664,-6.27859 6.3028221,6.3028221 0 0 0 -6.30259,-6.3026 6.3028221,6.3028221 0 0 0 -0.22681,0.0112 z m -21.27179,-24.60191 a 7.5124545,7.5124545 0 0 1 7.51295,7.51294 7.5124545,7.5124545 0 0 1 -7.51295,7.51077 7.5124545,7.5124545 0 0 1 -7.51294,-7.51077 7.5124545,7.5124545 0 0 1 7.51294,-7.51294 z m 6.49232,16.42598 a 4.3928766,4.3928766 0 0 1 4.39437,4.39219 4.3928766,4.3928766 0 0 1 -4.39437,4.39219 4.3928766,4.3928766 0 0 1 -4.39218,-4.39219 4.3928766,4.3928766 0 0 1 4.39218,-4.39219 z"
         id="path4554" />
      <path
         inkscape:connector-curvature="0"
         style="display:inline;fill:#d45500;stroke:none;stroke-width:0.90633923"
         d="m 371.76953,522.5293 a 16.993831,38.519146 0 0 0 -16.99414,38.51758 16.993831,38.519146 0 0 0 16.99414,38.51757 16.993831,38.519146 0 0 0 15.40625,-22.37304 9.8742152,16.15286 0 0 1 -9.77734,-16.14453 9.8742152,16.15286 0 0 1 9.77734,-16.14649 16.993831,38.519146 0 0 0 -15.40625,-22.37109 z m -14.29883,28.80273 5.37305,0 0,19.42774 -5.37305,0 0,-19.42774 z m 9.70118,2.91602 5.41992,0 0,13.59765 -5.41992,0 0,-13.59765 z"
         id="path4556" />
      <rect
         style="display:inline;fill:#aa4400;stroke:#aa4400;stroke-width:1.00983584"
         id="rect4558"
         width="4.3921957"
         height="17.861366"
         x="320.95703"
         y="552.11578" />
      <rect
         y="539.96021"
         x="330.41"
         height="42.172554"
         width="4.3937449"
         id="rect4560"
         style="display:inline;fill:#aa4400;stroke:#aa4400;stroke-width:1.0082866" />
      <rect
         style="display:inline;fill:#aa4400;stroke:#aa4400;stroke-width:1.00876606"
         id="rect4562"
         width="4.3932657"
         height="29.747147"
         x="339.86398"
         y="546.17291" />
      <rect
         y="548.60406"
         x="348.86774"
         height="24.884903"
         width="4.3929496"
         id="rect4564"
         style="display:inline;fill:#aa4400;stroke:#aa4400;stroke-width:1.00908196" />
      <circle
         style="display:inline;fill:#ff6600;stroke:none"
         id="circle4566"
         cx="433.1037"
         cy="-540.48267"
         r="6.3028221"
         transform="scale(1,-1)" />
      <ellipse
         transform="scale(1,-1)"
         cy="-527.33746"
         cx="424.95547"
         id="ellipse4568"
         style="display:inline;fill:#ff6600;stroke:none"
         rx="4.7271972"
         ry="4.6821795" />
      <ellipse
         ry="2.3412509"
         rx="2.3637614"
         style="display:inline;fill:#ff6600;stroke:none"
         id="ellipse4570"
         cx="434.63431"
         cy="-524.59137"
         transform="scale(1,-1)" />
    </g>
  </g>
</svg>
