<?xml version="1.0" encoding="UTF-8" standalone="no"?>
<!-- Created with Inkscape (http://www.inkscape.org/) -->

<svg
   xmlns:dc="http://purl.org/dc/elements/1.1/"
   xmlns:cc="http://creativecommons.org/ns#"
   xmlns:rdf="http://www.w3.org/1999/02/22-rdf-syntax-ns#"
   xmlns:svg="http://www.w3.org/2000/svg"
   xmlns="http://www.w3.org/2000/svg"
   xmlns:sodipodi="http://sodipodi.sourceforge.net/DTD/sodipodi-0.dtd"
   xmlns:inkscape="http://www.inkscape.org/namespaces/inkscape"
   width="108.76363mm"
   height="13.575751mm"
   viewBox="0 0 385.38295 48.103056"
   id="svg4249"
   version="1.1"
   inkscape:version="0.91 r13725"
   sodipodi:docname="logo-brand.svg">
  <defs
     id="defs4251" />
  <sodipodi:namedview
     id="base"
     pagecolor="#3c3c3c"
     bordercolor="#666666"
     borderopacity="1.0"
     inkscape:pageopacity="1"
     inkscape:pageshadow="2"
     inkscape:zoom="1.4"
     inkscape:cx="287.54464"
     inkscape:cy="-35.564644"
     inkscape:document-units="px"
     inkscape:current-layer="layer1"
     showgrid="false"
     fit-margin-top="0"
     fit-margin-left="0"
     fit-margin-right="0"
     fit-margin-bottom="0"
     inkscape:window-width="1313"
     inkscape:window-height="744"
     inkscape:window-x="47"
     inkscape:window-y="24"
     inkscape:window-maximized="1" />
  <metadata
     id="metadata4254">
    <rdf:RDF>
      <cc:Work
         rdf:about="">
        <dc:format>image/svg+xml</dc:format>
        <dc:type
           rdf:resource="http://purl.org/dc/dcmitype/StillImage" />
        <dc:title></dc:title>
      </cc:Work>
    </rdf:RDF>
  </metadata>
  <g
     inkscape:label="Layer 1"
     inkscape:groupmode="layer"
     id="layer1"
     transform="translate(-186.09088,-108.98945)">
    <g
       style="display:inline"
       id="g4612"
       transform="translate(-114.14724,-42.426407)">
      <text
         xml:space="preserve"
         style="font-style:normal;font-weight:normal;font-size:66.52576447px;line-height:125%;font-family:sans-serif;letter-spacing:0px;word-spacing:0px;fill:#ffffff;fill-opacity:1;stroke:none;stroke-width:1px;stroke-linecap:butt;stroke-linejoin:miter;stroke-opacity:1"
         x="366.18048"
         y="192.05244"
         id="text3473"
         sodipodi:linespacing="125%"><tspan
           sodipodi:role="line"
           id="tspan3475"
           x="366.18048"
           y="192.05244"
           style="font-style:normal;font-variant:normal;font-weight:normal;font-stretch:normal;font-family:'Gochi Hand';-inkscape-font-specification:'Gochi Hand';fill:#ffffff">studioBAKO</tspan></text>
      <g
         id="g4592"
         transform="matrix(0.47849694,0,0,0.47849694,146.90276,-89.103004)">
        <path
           id="path4594"
           d="m 387.26428,518.90857 a 42.137081,42.137081 0 0 0 -13.21364,2.1612 19.70146,40.447153 0 0 1 16.87306,39.97675 19.70146,40.447153 0 0 1 -16.81854,39.97456 42.137081,42.137081 0 0 0 13.15912,2.16338 42.137081,42.137081 0 0 0 41.93294,-38.32586 6.3028221,6.3028221 0 0 1 -0.50595,0.024 6.3028221,6.3028221 0 0 1 -6.30259,-6.30259 6.3028221,6.3028221 0 0 1 6.07578,-6.29169 42.137081,42.137081 0 0 0 -41.20018,-33.37974 z m 41.20018,33.37975 a 42.137081,42.137081 0 0 1 0.93776,8.7582 42.137081,42.137081 0 0 1 -0.205,3.81208 6.3028221,6.3028221 0 0 0 5.79664,-6.27859 6.3028221,6.3028221 0 0 0 -6.30259,-6.3026 6.3028221,6.3028221 0 0 0 -0.22681,0.0112 z m -21.27179,-24.60191 a 7.5124545,7.5124545 0 0 1 7.51295,7.51294 7.5124545,7.5124545 0 0 1 -7.51295,7.51077 7.5124545,7.5124545 0 0 1 -7.51294,-7.51077 7.5124545,7.5124545 0 0 1 7.51294,-7.51294 z m 6.49232,16.42598 a 4.3928766,4.3928766 0 0 1 4.39437,4.39219 4.3928766,4.3928766 0 0 1 -4.39437,4.39219 4.3928766,4.3928766 0 0 1 -4.39218,-4.39219 4.3928766,4.3928766 0 0 1 4.39218,-4.39219 z"
           style="display:inline;fill:#ff6600;fill-rule:evenodd;stroke:none;stroke-width:1px;stroke-linecap:butt;stroke-linejoin:miter;stroke-opacity:1"
           inkscape:connector-curvature="0" />
        <path
           id="path4596"
           d="m 371.76953,522.5293 a 16.993831,38.519146 0 0 0 -16.99414,38.51758 16.993831,38.519146 0 0 0 16.99414,38.51757 16.993831,38.519146 0 0 0 15.40625,-22.37304 9.8742152,16.15286 0 0 1 -9.77734,-16.14453 9.8742152,16.15286 0 0 1 9.77734,-16.14649 16.993831,38.519146 0 0 0 -15.40625,-22.37109 z m -14.29883,28.80273 5.37305,0 0,19.42774 -5.37305,0 0,-19.42774 z m 9.70118,2.91602 5.41992,0 0,13.59765 -5.41992,0 0,-13.59765 z"
           style="display:inline;fill:#d45500;stroke:none;stroke-width:0.90633923"
           inkscape:connector-curvature="0" />
        <rect
           y="552.11578"
           x="320.95703"
           height="17.861366"
           width="4.3921957"
           id="rect4598"
           style="display:inline;fill:#aa4400;stroke:#aa4400;stroke-width:1.00983584" />
        <rect
           style="display:inline;fill:#aa4400;stroke:#aa4400;stroke-width:1.0082866"
           id="rect4600"
           width="4.3937449"
           height="42.172554"
           x="330.41"
           y="539.96021" />
        <rect
           y="546.17291"
           x="339.86398"
           height="29.747147"
           width="4.3932657"
           id="rect4602"
           style="display:inline;fill:#aa4400;stroke:#aa4400;stroke-width:1.00876606" />
        <rect
           style="display:inline;fill:#aa4400;stroke:#aa4400;stroke-width:1.00908196"
           id="rect4604"
           width="4.3929496"
           height="24.884903"
           x="348.86774"
           y="548.60406" />
        <circle
           transform="scale(1,-1)"
           r="6.3028221"
           cy="-540.48267"
           cx="433.1037"
           id="circle4606"
           style="display:inline;fill:#ff6600;stroke:none" />
        <ellipse
           ry="4.6821795"
           rx="4.7271972"
           style="display:inline;fill:#ff6600;stroke:none"
           id="ellipse4608"
           cx="424.95547"
           cy="-527.33746"
           transform="scale(1,-1)" />
        <ellipse
           transform="scale(1,-1)"
           cy="-524.59137"
           cx="434.63431"
           id="ellipse4610"
           style="display:inline;fill:#ff6600;stroke:none"
           rx="2.3637614"
           ry="2.3412509" />
      </g>
    </g>
  </g>
</svg>
